# xmcd CD database file
#
# Track frame offsets:
#	150
#	12617
#	33173
#	56826
#	71919
#	103110
#	135629
#	156706
#	181698
#	204773
#	226846
#	247568
#
# Disc length: 3599 seconds
#
# Revision: 0
# Processed by: cddbd v1.5.1PL0 Copyright (c) Steve Scherf et al.
# Submitted via: CDex 1.51
#
DISCID=9c0e0d0c
DTITLE=Peggy Chew - Real Days
DYEAR=1999
DGENRE=Jazz
TTITLE0=My lonely room
TTITLE1=Real days
TTITLE2=One step beyond
TTITLE3=northern comfort
TTITLE4=Sweet sucker dance
TTITLE5=Raim waltz
TTITLE6=The dry cleaner from des moines
TTITLE7=Time in a bottle
TTITLE8=New tune
TTITLE9=Cycle no. 8
TTITLE10=Chelsea morning
TTITLE11=Equipoise
EXTD=YEAR: 1999
EXTT0=
EXTT1=
EXTT2=
EXTT3=
EXTT4=
EXTT5=
EXTT6=
EXTT7=
EXTT8=
EXTT9=
EXTT10=
EXTT11=
PLAYORDER=
